<?xml version="1.0" standalone="no"?>
<!DOCTYPE svg PUBLIC "-//W3C//DTD SVG 20010904//EN"
 "http://www.w3.org/TR/2001/REC-SVG-20010904/DTD/svg10.dtd">
<svg version="1.0" xmlns="http://www.w3.org/2000/svg"
 width="160.000000pt" height="160.000000pt" viewBox="0 0 160.000000 160.000000"
 preserveAspectRatio="xMidYMid meet">
<metadata>
Created by potrace 1.11, written by Peter Selinger 2001-2013
</metadata>
<g transform="translate(0.000000,160.000000) scale(0.100000,-0.100000)"
fill="#000000" stroke="none">
<path d="M318 1285 c-2 -2 -17 -5 -35 -8 -56 -9 -142 -58 -182 -104 -68 -77
-86 -124 -86 -233 0 -82 4 -103 26 -150 34 -72 92 -130 165 -166 48 -23 74
-29 139 -31 162 -4 285 82 338 239 l22 63 42 -1 c24 0 44 -2 46 -5 1 -2 9 -26
15 -53 24 -94 123 -198 219 -229 70 -23 187 -17 253 14 94 44 164 125 192 224
15 56 34 59 30 5 -7 -97 -73 -221 -161 -303 -105 -97 -235 -143 -381 -134
-139 8 -253 60 -344 157 -26 27 -49 50 -52 50 -11 0 -64 -41 -64 -49 0 -16
121 -128 173 -159 31 -18 88 -45 129 -59 62 -23 90 -26 188 -27 99 0 125 4
188 26 207 74 354 233 401 434 15 64 23 182 12 188 -5 3 -31 6 -60 7 -34 2
-51 6 -51 15 0 34 -45 127 -81 168 -184 209 -515 135 -595 -133 l-15 -51 -43
0 c-43 0 -44 1 -55 43 -27 107 -120 208 -220 242 -43 14 -145 27 -153 20z
m149 -113 c165 -85 197 -295 64 -423 -172 -164 -453 -28 -435 211 7 98 91 202
184 228 53 15 141 7 187 -16z m776 3 c21 -9 57 -35 80 -59 159 -163 42 -438
-184 -437 -147 0 -259 112 -259 255 1 120 74 220 190 257 36 12 129 4 173 -16z"/>
</g>
</svg>
