<svg xmlns="http://www.w3.org/2000/svg" width="24" height="24" viewBox="0 0 24 24"><defs><style>.a{fill:#fff;}.b{fill:none;}.c{fill:#aa0601;}</style></defs><g transform="translate(-64 -64)"><circle class="a" cx="12" cy="12" r="12" transform="translate(64 64)"/><path class="b" d="M193.754,145.465a6.033,6.033,0,0,0-2.556-.455,5.554,5.554,0,0,0-3.516,1.155,4.878,4.878,0,0,0-1.935,3.344,4.82,4.82,0,0,0-.007.938.234.234,0,0,0,.234.21h1.659a.234.234,0,0,0,.234-.234,5.133,5.133,0,0,1,.063-.8,2.812,2.812,0,0,1,1.122-1.745,3.408,3.408,0,0,1,2.174-.671,4.108,4.108,0,0,1,1.589.241,2.431,2.431,0,0,1,1.677,2.22c0,1.406-.852,2.049-2.358,3.061a4.807,4.807,0,0,0-2.408,4.16v.859a.234.234,0,0,0,.234.234h1.719a.234.234,0,0,0,.234-.234v-.859a2.594,2.594,0,0,1,1.441-2.344c1.559-1.048,3.325-2.234,3.325-4.877A4.6,4.6,0,0,0,193.754,145.465Z" transform="translate(-115.208 -76.91)"/><path class="c" d="M76,64A12,12,0,1,0,88,76,12,12,0,0,0,76,64Zm.653,18.875H74.764a.161.161,0,0,1-.16-.161V80.827a.161.161,0,0,1,.16-.161h1.888a.161.161,0,0,1,.16.161v1.887A.161.161,0,0,1,76.653,82.875Zm1.062-6.187a2.076,2.076,0,0,0-1.152,1.875v.687a.188.188,0,0,1-.187.188H75a.188.188,0,0,1-.187-.188v-.687a3.846,3.846,0,0,1,1.926-3.329c1.2-.809,1.886-1.321,1.886-2.448a1.951,1.951,0,0,0-1.343-1.779,3.282,3.282,0,0,0-1.271-.193,2.727,2.727,0,0,0-1.739.537,2.239,2.239,0,0,0-.9,1.4,4.107,4.107,0,0,0-.053.643.187.187,0,0,1-.187.188H71.807a.188.188,0,0,1-.187-.168,3.856,3.856,0,0,1,.006-.75,3.911,3.911,0,0,1,1.548-2.675,4.456,4.456,0,0,1,2.813-.924,4.9,4.9,0,0,1,2.045.364,3.679,3.679,0,0,1,2.344,3.359C80.375,74.9,78.962,75.849,77.715,76.688Z"/></g></svg>